<?xml version="1.0" encoding="utf-8" standalone="no"?>
<!DOCTYPE svg PUBLIC "-//W3C//DTD SVG 1.1//EN"
  "http://www.w3.org/Graphics/SVG/1.1/DTD/svg11.dtd">
<svg xmlns:xlink="http://www.w3.org/1999/xlink" width="856.8pt" height="568.8pt" viewBox="0 0 856.8 568.8" xmlns="http://www.w3.org/2000/svg" version="1.1">
 <metadata>
  <rdf:RDF xmlns:dc="http://purl.org/dc/elements/1.1/" xmlns:cc="http://creativecommons.org/ns#" xmlns:rdf="http://www.w3.org/1999/02/22-rdf-syntax-ns#">
   <cc:Work>
    <dc:type rdf:resource="http://purl.org/dc/dcmitype/StillImage"/>
    <dc:date>2025-08-02T19:52:43.186346</dc:date>
    <dc:format>image/svg+xml</dc:format>
    <dc:creator>
     <cc:Agent>
      <dc:title>Matplotlib v3.10.3, https://matplotlib.org/</dc:title>
     </cc:Agent>
    </dc:creator>
   </cc:Work>
  </rdf:RDF>
 </metadata>
 <defs>
  <style type="text/css">*{stroke-linejoin: round; stroke-linecap: butt}</style>
 </defs>
 <g id="figure_1">
  <g id="patch_1">
   <path d="M 0 568.8 
L 856.8 568.8 
L 856.8 0 
L 0 0 
z
" style="fill: #ffffff"/>
  </g>
  <g id="axes_1">
   <g id="patch_2">
    <path d="M 49.32 256.68 
L 217.8 256.68 
Q 226.224 256.68 226.224 249.75 
L 226.224 76.5 
Q 226.224 69.57 217.8 69.57 
L 49.32 69.57 
Q 40.896 69.57 40.896 76.5 
L 40.896 249.75 
Q 40.896 256.68 49.32 256.68 
z
" clip-path="url(#pad7a254bce)" style="fill: #add8e6; stroke: #000000; stroke-width: 2; stroke-linejoin: miter"/>
   </g>
   <g id="patch_3">
    <path d="M 302.04 256.68 
L 470.52 256.68 
Q 478.944 256.68 478.944 249.75 
L 478.944 76.5 
Q 478.944 69.57 470.52 69.57 
L 302.04 69.57 
Q 293.616 69.57 293.616 76.5 
L 293.616 249.75 
Q 293.616 256.68 302.04 256.68 
z
" clip-path="url(#pad7a254bce)" style="fill: #90ee90; stroke: #000000; stroke-width: 2; stroke-linejoin: miter"/>
   </g>
   <g id="patch_4">
    <path d="M 554.76 256.68 
L 765.36 256.68 
Q 773.784 256.68 773.784 249.75 
L 773.784 76.5 
Q 773.784 69.57 765.36 69.57 
L 554.76 69.57 
Q 546.336 69.57 546.336 76.5 
L 546.336 249.75 
Q 546.336 256.68 554.76 256.68 
z
" clip-path="url(#pad7a254bce)" style="fill: #ffffe0; stroke: #000000; stroke-width: 2; stroke-linejoin: miter"/>
   </g>
   <g id="patch_5">
    <path d="M 91.44 429.93 
L 681.12 429.93 
Q 689.544 429.93 689.544 423 
L 689.544 319.05 
Q 689.544 312.12 681.12 312.12 
L 91.44 312.12 
Q 83.016 312.12 83.016 319.05 
L 83.016 423 
Q 83.016 429.93 91.44 429.93 
z
" clip-path="url(#pad7a254bce)" style="fill: #e6e6fa; stroke: #000000; stroke-width: 2; stroke-linejoin: miter"/>
   </g>
   <g id="patch_6">
    <path d="M 91.44 554.67 
L 681.12 554.67 
Q 689.544 554.67 689.544 547.74 
L 689.544 457.65 
Q 689.544 450.72 681.12 450.72 
L 91.44 450.72 
Q 83.016 450.72 83.016 457.65 
L 83.016 547.74 
Q 83.016 554.67 91.44 554.67 
z
" clip-path="url(#pad7a254bce)" style="fill: #ffe4e1; stroke: #000000; stroke-width: 2; stroke-linejoin: miter"/>
   </g>
   <g id="patch_7">
    <path d="M 293.616 166.59 
L 285.192 170.055 
L 285.192 166.62465 
L 217.8 166.62465 
L 217.8 166.55535 
L 285.192 166.55535 
L 285.192 163.125 
z
" clip-path="url(#pad7a254bce)" style="stroke: #000000; stroke-linejoin: miter"/>
   </g>
   <g id="patch_8">
    <path d="M 546.336 166.59 
L 537.912 170.055 
L 537.912 166.62465 
L 470.52 166.62465 
L 470.52 166.55535 
L 537.912 166.55535 
L 537.912 163.125 
z
" clip-path="url(#pad7a254bce)" style="stroke: #000000; stroke-linejoin: miter"/>
   </g>
   <g id="text_1">
    <!-- TERNUINO CPU ARCHITECTURE -->
    <g transform="translate(254.882813 41.85) scale(0.2 -0.2)">
     <defs>
      <path id="DejaVuSans-Bold-54" d="M 31 4666 
L 4331 4666 
L 4331 3756 
L 2784 3756 
L 2784 0 
L 1581 0 
L 1581 3756 
L 31 3756 
L 31 4666 
z
" transform="scale(0.015625)"/>
      <path id="DejaVuSans-Bold-45" d="M 588 4666 
L 3834 4666 
L 3834 3756 
L 1791 3756 
L 1791 2888 
L 3713 2888 
L 3713 1978 
L 1791 1978 
L 1791 909 
L 3903 909 
L 3903 0 
L 588 0 
L 588 4666 
z
" transform="scale(0.015625)"/>
      <path id="DejaVuSans-Bold-52" d="M 2297 2597 
Q 2675 2597 2839 2737 
Q 3003 2878 3003 3200 
Q 3003 3519 2839 3656 
Q 2675 3794 2297 3794 
L 1791 3794 
L 1791 2597 
L 2297 2597 
z
M 1791 1766 
L 1791 0 
L 588 0 
L 588 4666 
L 2425 4666 
Q 3347 4666 3776 4356 
Q 4206 4047 4206 3378 
Q 4206 2916 3982 2619 
Q 3759 2322 3309 2181 
Q 3556 2125 3751 1926 
Q 3947 1728 4147 1325 
L 4800 0 
L 3519 0 
L 2950 1159 
Q 2778 1509 2601 1637 
Q 2425 1766 2131 1766 
L 1791 1766 
z
" transform="scale(0.015625)"/>
      <path id="DejaVuSans-Bold-4e" d="M 588 4666 
L 1931 4666 
L 3628 1466 
L 3628 4666 
L 4769 4666 
L 4769 0 
L 3425 0 
L 1728 3200 
L 1728 0 
L 588 0 
L 588 4666 
z
" transform="scale(0.015625)"/>
      <path id="DejaVuSans-Bold-55" d="M 588 4666 
L 1791 4666 
L 1791 1869 
Q 1791 1291 1980 1042 
Q 2169 794 2597 794 
Q 3028 794 3217 1042 
Q 3406 1291 3406 1869 
L 3406 4666 
L 4609 4666 
L 4609 1869 
Q 4609 878 4112 393 
Q 3616 -91 2597 -91 
Q 1581 -91 1084 393 
Q 588 878 588 1869 
L 588 4666 
z
" transform="scale(0.015625)"/>
      <path id="DejaVuSans-Bold-49" d="M 588 4666 
L 1791 4666 
L 1791 0 
L 588 0 
L 588 4666 
z
" transform="scale(0.015625)"/>
      <path id="DejaVuSans-Bold-4f" d="M 2719 3878 
Q 2169 3878 1866 3472 
Q 1563 3066 1563 2328 
Q 1563 1594 1866 1187 
Q 2169 781 2719 781 
Q 3272 781 3575 1187 
Q 3878 1594 3878 2328 
Q 3878 3066 3575 3472 
Q 3272 3878 2719 3878 
z
M 2719 4750 
Q 3844 4750 4481 4106 
Q 5119 3463 5119 2328 
Q 5119 1197 4481 553 
Q 3844 -91 2719 -91 
Q 1597 -91 958 553 
Q 319 1197 319 2328 
Q 319 3463 958 4106 
Q 1597 4750 2719 4750 
z
" transform="scale(0.015625)"/>
      <path id="DejaVuSans-Bold-20" transform="scale(0.015625)"/>
      <path id="DejaVuSans-Bold-43" d="M 4288 256 
Q 3956 84 3597 -3 
Q 3238 -91 2847 -91 
Q 1681 -91 1000 561 
Q 319 1213 319 2328 
Q 319 3447 1000 4098 
Q 1681 4750 2847 4750 
Q 3238 4750 3597 4662 
Q 3956 4575 4288 4403 
L 4288 3438 
Q 3953 3666 3628 3772 
Q 3303 3878 2944 3878 
Q 2300 3878 1931 3465 
Q 1563 3053 1563 2328 
Q 1563 1606 1931 1193 
Q 2300 781 2944 781 
Q 3303 781 3628 887 
Q 3953 994 4288 1222 
L 4288 256 
z
" transform="scale(0.015625)"/>
      <path id="DejaVuSans-Bold-50" d="M 588 4666 
L 2584 4666 
Q 3475 4666 3951 4270 
Q 4428 3875 4428 3144 
Q 4428 2409 3951 2014 
Q 3475 1619 2584 1619 
L 1791 1619 
L 1791 0 
L 588 0 
L 588 4666 
z
M 1791 3794 
L 1791 2491 
L 2456 2491 
Q 2806 2491 2997 2661 
Q 3188 2831 3188 3144 
Q 3188 3456 2997 3625 
Q 2806 3794 2456 3794 
L 1791 3794 
z
" transform="scale(0.015625)"/>
      <path id="DejaVuSans-Bold-41" d="M 3419 850 
L 1538 850 
L 1241 0 
L 31 0 
L 1759 4666 
L 3194 4666 
L 4922 0 
L 3713 0 
L 3419 850 
z
M 1838 1716 
L 3116 1716 
L 2478 3572 
L 1838 1716 
z
" transform="scale(0.015625)"/>
      <path id="DejaVuSans-Bold-48" d="M 588 4666 
L 1791 4666 
L 1791 2888 
L 3566 2888 
L 3566 4666 
L 4769 4666 
L 4769 0 
L 3566 0 
L 3566 1978 
L 1791 1978 
L 1791 0 
L 588 0 
L 588 4666 
z
" transform="scale(0.015625)"/>
     </defs>
     <use xlink:href="#DejaVuSans-Bold-54"/>
     <use xlink:href="#DejaVuSans-Bold-45" transform="translate(68.212891 0)"/>
     <use xlink:href="#DejaVuSans-Bold-52" transform="translate(136.523438 0)"/>
     <use xlink:href="#DejaVuSans-Bold-4e" transform="translate(213.525391 0)"/>
     <use xlink:href="#DejaVuSans-Bold-55" transform="translate(297.216797 0)"/>
     <use xlink:href="#DejaVuSans-Bold-49" transform="translate(378.417969 0)"/>
     <use xlink:href="#DejaVuSans-Bold-4e" transform="translate(415.625 0)"/>
     <use xlink:href="#DejaVuSans-Bold-4f" transform="translate(499.316406 0)"/>
     <use xlink:href="#DejaVuSans-Bold-20" transform="translate(584.326172 0)"/>
     <use xlink:href="#DejaVuSans-Bold-43" transform="translate(619.140625 0)"/>
     <use xlink:href="#DejaVuSans-Bold-50" transform="translate(692.529297 0)"/>
     <use xlink:href="#DejaVuSans-Bold-55" transform="translate(765.820312 0)"/>
     <use xlink:href="#DejaVuSans-Bold-20" transform="translate(847.021484 0)"/>
     <use xlink:href="#DejaVuSans-Bold-41" transform="translate(881.835938 0)"/>
     <use xlink:href="#DejaVuSans-Bold-52" transform="translate(959.228516 0)"/>
     <use xlink:href="#DejaVuSans-Bold-43" transform="translate(1036.230469 0)"/>
     <use xlink:href="#DejaVuSans-Bold-48" transform="translate(1109.619141 0)"/>
     <use xlink:href="#DejaVuSans-Bold-49" transform="translate(1193.310547 0)"/>
     <use xlink:href="#DejaVuSans-Bold-54" transform="translate(1230.517578 0)"/>
     <use xlink:href="#DejaVuSans-Bold-45" transform="translate(1298.730469 0)"/>
     <use xlink:href="#DejaVuSans-Bold-43" transform="translate(1367.041016 0)"/>
     <use xlink:href="#DejaVuSans-Bold-54" transform="translate(1440.429688 0)"/>
     <use xlink:href="#DejaVuSans-Bold-55" transform="translate(1508.642578 0)"/>
     <use xlink:href="#DejaVuSans-Bold-52" transform="translate(1589.84375 0)"/>
     <use xlink:href="#DejaVuSans-Bold-45" transform="translate(1666.845703 0)"/>
    </g>
   </g>
   <g id="text_2">
    <!-- REGISTERS -->
    <g transform="translate(102.452188 111.15) scale(0.1 -0.1)">
     <defs>
      <path id="DejaVuSans-Bold-47" d="M 4781 347 
Q 4331 128 3847 18 
Q 3363 -91 2847 -91 
Q 1681 -91 1000 561 
Q 319 1213 319 2328 
Q 319 3456 1012 4103 
Q 1706 4750 2913 4750 
Q 3378 4750 3804 4662 
Q 4231 4575 4609 4403 
L 4609 3438 
Q 4219 3659 3833 3768 
Q 3447 3878 3059 3878 
Q 2341 3878 1952 3476 
Q 1563 3075 1563 2328 
Q 1563 1588 1938 1184 
Q 2313 781 3003 781 
Q 3191 781 3352 804 
Q 3513 828 3641 878 
L 3641 1784 
L 2906 1784 
L 2906 2591 
L 4781 2591 
L 4781 347 
z
" transform="scale(0.015625)"/>
      <path id="DejaVuSans-Bold-53" d="M 3834 4519 
L 3834 3531 
Q 3450 3703 3084 3790 
Q 2719 3878 2394 3878 
Q 1963 3878 1756 3759 
Q 1550 3641 1550 3391 
Q 1550 3203 1689 3098 
Q 1828 2994 2194 2919 
L 2706 2816 
Q 3484 2659 3812 2340 
Q 4141 2022 4141 1434 
Q 4141 663 3683 286 
Q 3225 -91 2284 -91 
Q 1841 -91 1394 -6 
Q 947 78 500 244 
L 500 1259 
Q 947 1022 1364 901 
Q 1781 781 2169 781 
Q 2563 781 2772 912 
Q 2981 1044 2981 1288 
Q 2981 1506 2839 1625 
Q 2697 1744 2272 1838 
L 1806 1941 
Q 1106 2091 782 2419 
Q 459 2747 459 3303 
Q 459 4000 909 4375 
Q 1359 4750 2203 4750 
Q 2588 4750 2994 4692 
Q 3400 4634 3834 4519 
z
" transform="scale(0.015625)"/>
     </defs>
     <use xlink:href="#DejaVuSans-Bold-52"/>
     <use xlink:href="#DejaVuSans-Bold-45" transform="translate(77.001953 0)"/>
     <use xlink:href="#DejaVuSans-Bold-47" transform="translate(145.3125 0)"/>
     <use xlink:href="#DejaVuSans-Bold-49" transform="translate(227.392578 0)"/>
     <use xlink:href="#DejaVuSans-Bold-53" transform="translate(264.599609 0)"/>
     <use xlink:href="#DejaVuSans-Bold-54" transform="translate(336.621094 0)"/>
     <use xlink:href="#DejaVuSans-Bold-45" transform="translate(404.833984 0)"/>
     <use xlink:href="#DejaVuSans-Bold-52" transform="translate(473.144531 0)"/>
     <use xlink:href="#DejaVuSans-Bold-53" transform="translate(550.146484 0)"/>
    </g>
   </g>
   <g id="text_3">
    <!-- A: trit -->
    <g transform="translate(119.588906 145.8) scale(0.1 -0.1)">
     <defs>
      <path id="DejaVuSans-41" d="M 2188 4044 
L 1331 1722 
L 3047 1722 
L 2188 4044 
z
M 1831 4666 
L 2547 4666 
L 4325 0 
L 3669 0 
L 3244 1197 
L 1141 1197 
L 716 0 
L 50 0 
L 1831 4666 
z
" transform="scale(0.015625)"/>
      <path id="DejaVuSans-3a" d="M 750 794 
L 1409 794 
L 1409 0 
L 750 0 
L 750 794 
z
M 750 3309 
L 1409 3309 
L 1409 2516 
L 750 2516 
L 750 3309 
z
" transform="scale(0.015625)"/>
      <path id="DejaVuSans-20" transform="scale(0.015625)"/>
      <path id="DejaVuSans-74" d="M 1172 4494 
L 1172 3500 
L 2356 3500 
L 2356 3053 
L 1172 3053 
L 1172 1153 
Q 1172 725 1289 603 
Q 1406 481 1766 481 
L 2356 481 
L 2356 0 
L 1766 0 
Q 1100 0 847 248 
Q 594 497 594 1153 
L 594 3053 
L 172 3053 
L 172 3500 
L 594 3500 
L 594 4494 
L 1172 4494 
z
" transform="scale(0.015625)"/>
      <path id="DejaVuSans-72" d="M 2631 2963 
Q 2534 3019 2420 3045 
Q 2306 3072 2169 3072 
Q 1681 3072 1420 2755 
Q 1159 2438 1159 1844 
L 1159 0 
L 581 0 
L 581 3500 
L 1159 3500 
L 1159 2956 
Q 1341 3275 1631 3429 
Q 1922 3584 2338 3584 
Q 2397 3584 2469 3576 
Q 2541 3569 2628 3553 
L 2631 2963 
z
" transform="scale(0.015625)"/>
      <path id="DejaVuSans-69" d="M 603 3500 
L 1178 3500 
L 1178 0 
L 603 0 
L 603 3500 
z
M 603 4863 
L 1178 4863 
L 1178 4134 
L 603 4134 
L 603 4863 
z
" transform="scale(0.015625)"/>
     </defs>
     <use xlink:href="#DejaVuSans-41"/>
     <use xlink:href="#DejaVuSans-3a" transform="translate(66.658203 0)"/>
     <use xlink:href="#DejaVuSans-20" transform="translate(100.349609 0)"/>
     <use xlink:href="#DejaVuSans-74" transform="translate(132.136719 0)"/>
     <use xlink:href="#DejaVuSans-72" transform="translate(171.345703 0)"/>
     <use xlink:href="#DejaVuSans-69" transform="translate(212.458984 0)"/>
     <use xlink:href="#DejaVuSans-74" transform="translate(240.242188 0)"/>
    </g>
   </g>
   <g id="text_4">
    <!-- B: trit -->
    <g transform="translate(119.49125 166.59) scale(0.1 -0.1)">
     <defs>
      <path id="DejaVuSans-42" d="M 1259 2228 
L 1259 519 
L 2272 519 
Q 2781 519 3026 730 
Q 3272 941 3272 1375 
Q 3272 1813 3026 2020 
Q 2781 2228 2272 2228 
L 1259 2228 
z
M 1259 4147 
L 1259 2741 
L 2194 2741 
Q 2656 2741 2882 2914 
Q 3109 3088 3109 3444 
Q 3109 3797 2882 3972 
Q 2656 4147 2194 4147 
L 1259 4147 
z
M 628 4666 
L 2241 4666 
Q 2963 4666 3353 4366 
Q 3744 4066 3744 3513 
Q 3744 3084 3544 2831 
Q 3344 2578 2956 2516 
Q 3422 2416 3680 2098 
Q 3938 1781 3938 1306 
Q 3938 681 3513 340 
Q 3088 0 2303 0 
L 628 0 
L 628 4666 
z
" transform="scale(0.015625)"/>
     </defs>
     <use xlink:href="#DejaVuSans-42"/>
     <use xlink:href="#DejaVuSans-3a" transform="translate(68.603516 0)"/>
     <use xlink:href="#DejaVuSans-20" transform="translate(102.294922 0)"/>
     <use xlink:href="#DejaVuSans-74" transform="translate(134.082031 0)"/>
     <use xlink:href="#DejaVuSans-72" transform="translate(173.291016 0)"/>
     <use xlink:href="#DejaVuSans-69" transform="translate(214.404297 0)"/>
     <use xlink:href="#DejaVuSans-74" transform="translate(242.1875 0)"/>
    </g>
   </g>
   <g id="text_5">
    <!-- C: trit -->
    <g transform="translate(119.430312 187.38) scale(0.1 -0.1)">
     <defs>
      <path id="DejaVuSans-43" d="M 4122 4306 
L 4122 3641 
Q 3803 3938 3442 4084 
Q 3081 4231 2675 4231 
Q 1875 4231 1450 3742 
Q 1025 3253 1025 2328 
Q 1025 1406 1450 917 
Q 1875 428 2675 428 
Q 3081 428 3442 575 
Q 3803 722 4122 1019 
L 4122 359 
Q 3791 134 3420 21 
Q 3050 -91 2638 -91 
Q 1578 -91 968 557 
Q 359 1206 359 2328 
Q 359 3453 968 4101 
Q 1578 4750 2638 4750 
Q 3056 4750 3426 4639 
Q 3797 4528 4122 4306 
z
" transform="scale(0.015625)"/>
     </defs>
     <use xlink:href="#DejaVuSans-43"/>
     <use xlink:href="#DejaVuSans-3a" transform="translate(69.824219 0)"/>
     <use xlink:href="#DejaVuSans-20" transform="translate(103.515625 0)"/>
     <use xlink:href="#DejaVuSans-74" transform="translate(135.302734 0)"/>
     <use xlink:href="#DejaVuSans-72" transform="translate(174.511719 0)"/>
     <use xlink:href="#DejaVuSans-69" transform="translate(215.625 0)"/>
     <use xlink:href="#DejaVuSans-74" transform="translate(243.408203 0)"/>
    </g>
   </g>
   <g id="text_6">
    <!-- PC: int -->
    <g transform="translate(117.262344 208.17) scale(0.1 -0.1)">
     <defs>
      <path id="DejaVuSans-50" d="M 1259 4147 
L 1259 2394 
L 2053 2394 
Q 2494 2394 2734 2622 
Q 2975 2850 2975 3272 
Q 2975 3691 2734 3919 
Q 2494 4147 2053 4147 
L 1259 4147 
z
M 628 4666 
L 2053 4666 
Q 2838 4666 3239 4311 
Q 3641 3956 3641 3272 
Q 3641 2581 3239 2228 
Q 2838 1875 2053 1875 
L 1259 1875 
L 1259 0 
L 628 0 
L 628 4666 
z
" transform="scale(0.015625)"/>
      <path id="DejaVuSans-6e" d="M 3513 2113 
L 3513 0 
L 2938 0 
L 2938 2094 
Q 2938 2591 2744 2837 
Q 2550 3084 2163 3084 
Q 1697 3084 1428 2787 
Q 1159 2491 1159 1978 
L 1159 0 
L 581 0 
L 581 3500 
L 1159 3500 
L 1159 2956 
Q 1366 3272 1645 3428 
Q 1925 3584 2291 3584 
Q 2894 3584 3203 3211 
Q 3513 2838 3513 2113 
z
" transform="scale(0.015625)"/>
     </defs>
     <use xlink:href="#DejaVuSans-50"/>
     <use xlink:href="#DejaVuSans-43" transform="translate(60.302734 0)"/>
     <use xlink:href="#DejaVuSans-3a" transform="translate(130.126953 0)"/>
     <use xlink:href="#DejaVuSans-20" transform="translate(163.818359 0)"/>
     <use xlink:href="#DejaVuSans-69" transform="translate(195.605469 0)"/>
     <use xlink:href="#DejaVuSans-6e" transform="translate(223.388672 0)"/>
     <use xlink:href="#DejaVuSans-74" transform="translate(286.767578 0)"/>
    </g>
   </g>
   <g id="text_7">
    <!-- MEMORY -->
    <g transform="translate(361.466719 111.15) scale(0.1 -0.1)">
     <defs>
      <path id="DejaVuSans-Bold-4d" d="M 588 4666 
L 2119 4666 
L 3181 2169 
L 4250 4666 
L 5778 4666 
L 5778 0 
L 4641 0 
L 4641 3413 
L 3566 897 
L 2803 897 
L 1728 3413 
L 1728 0 
L 588 0 
L 588 4666 
z
" transform="scale(0.015625)"/>
      <path id="DejaVuSans-Bold-59" d="M -63 4666 
L 1253 4666 
L 2316 3003 
L 3378 4666 
L 4697 4666 
L 2919 1966 
L 2919 0 
L 1716 0 
L 1716 1966 
L -63 4666 
z
" transform="scale(0.015625)"/>
     </defs>
     <use xlink:href="#DejaVuSans-Bold-4d"/>
     <use xlink:href="#DejaVuSans-Bold-45" transform="translate(99.511719 0)"/>
     <use xlink:href="#DejaVuSans-Bold-4d" transform="translate(167.822266 0)"/>
     <use xlink:href="#DejaVuSans-Bold-4f" transform="translate(267.333984 0)"/>
     <use xlink:href="#DejaVuSans-Bold-52" transform="translate(352.34375 0)"/>
     <use xlink:href="#DejaVuSans-Bold-59" transform="translate(423.845703 0)"/>
    </g>
   </g>
   <g id="text_8">
    <!-- 27 locations -->
    <g transform="translate(355.884688 145.8) scale(0.1 -0.1)">
     <defs>
      <path id="DejaVuSans-32" d="M 1228 531 
L 3431 531 
L 3431 0 
L 469 0 
L 469 531 
Q 828 903 1448 1529 
Q 2069 2156 2228 2338 
Q 2531 2678 2651 2914 
Q 2772 3150 2772 3378 
Q 2772 3750 2511 3984 
Q 2250 4219 1831 4219 
Q 1534 4219 1204 4116 
Q 875 4013 500 3803 
L 500 4441 
Q 881 4594 1212 4672 
Q 1544 4750 1819 4750 
Q 2544 4750 2975 4387 
Q 3406 4025 3406 3419 
Q 3406 3131 3298 2873 
Q 3191 2616 2906 2266 
Q 2828 2175 2409 1742 
Q 1991 1309 1228 531 
z
" transform="scale(0.015625)"/>
      <path id="DejaVuSans-37" d="M 525 4666 
L 3525 4666 
L 3525 4397 
L 1831 0 
L 1172 0 
L 2766 4134 
L 525 4134 
L 525 4666 
z
" transform="scale(0.015625)"/>
      <path id="DejaVuSans-6c" d="M 603 4863 
L 1178 4863 
L 1178 0 
L 603 0 
L 603 4863 
z
" transform="scale(0.015625)"/>
      <path id="DejaVuSans-6f" d="M 1959 3097 
Q 1497 3097 1228 2736 
Q 959 2375 959 1747 
Q 959 1119 1226 758 
Q 1494 397 1959 397 
Q 2419 397 2687 759 
Q 2956 1122 2956 1747 
Q 2956 2369 2687 2733 
Q 2419 3097 1959 3097 
z
M 1959 3584 
Q 2709 3584 3137 3096 
Q 3566 2609 3566 1747 
Q 3566 888 3137 398 
Q 2709 -91 1959 -91 
Q 1206 -91 779 398 
Q 353 888 353 1747 
Q 353 2609 779 3096 
Q 1206 3584 1959 3584 
z
" transform="scale(0.015625)"/>
      <path id="DejaVuSans-63" d="M 3122 3366 
L 3122 2828 
Q 2878 2963 2633 3030 
Q 2388 3097 2138 3097 
Q 1578 3097 1268 2742 
Q 959 2388 959 1747 
Q 959 1106 1268 751 
Q 1578 397 2138 397 
Q 2388 397 2633 464 
Q 2878 531 3122 666 
L 3122 134 
Q 2881 22 2623 -34 
Q 2366 -91 2075 -91 
Q 1284 -91 818 406 
Q 353 903 353 1747 
Q 353 2603 823 3093 
Q 1294 3584 2113 3584 
Q 2378 3584 2631 3529 
Q 2884 3475 3122 3366 
z
" transform="scale(0.015625)"/>
      <path id="DejaVuSans-61" d="M 2194 1759 
Q 1497 1759 1228 1600 
Q 959 1441 959 1056 
Q 959 750 1161 570 
Q 1363 391 1709 391 
Q 2188 391 2477 730 
Q 2766 1069 2766 1631 
L 2766 1759 
L 2194 1759 
z
M 3341 1997 
L 3341 0 
L 2766 0 
L 2766 531 
Q 2569 213 2275 61 
Q 1981 -91 1556 -91 
Q 1019 -91 701 211 
Q 384 513 384 1019 
Q 384 1609 779 1909 
Q 1175 2209 1959 2209 
L 2766 2209 
L 2766 2266 
Q 2766 2663 2505 2880 
Q 2244 3097 1772 3097 
Q 1472 3097 1187 3025 
Q 903 2953 641 2809 
L 641 3341 
Q 956 3463 1253 3523 
Q 1550 3584 1831 3584 
Q 2591 3584 2966 3190 
Q 3341 2797 3341 1997 
z
" transform="scale(0.015625)"/>
      <path id="DejaVuSans-73" d="M 2834 3397 
L 2834 2853 
Q 2591 2978 2328 3040 
Q 2066 3103 1784 3103 
Q 1356 3103 1142 2972 
Q 928 2841 928 2578 
Q 928 2378 1081 2264 
Q 1234 2150 1697 2047 
L 1894 2003 
Q 2506 1872 2764 1633 
Q 3022 1394 3022 966 
Q 3022 478 2636 193 
Q 2250 -91 1575 -91 
Q 1294 -91 989 -36 
Q 684 19 347 128 
L 347 722 
Q 666 556 975 473 
Q 1284 391 1588 391 
Q 1994 391 2212 530 
Q 2431 669 2431 922 
Q 2431 1156 2273 1281 
Q 2116 1406 1581 1522 
L 1381 1569 
Q 847 1681 609 1914 
Q 372 2147 372 2553 
Q 372 3047 722 3315 
Q 1072 3584 1716 3584 
Q 2034 3584 2315 3537 
Q 2597 3491 2834 3397 
z
" transform="scale(0.015625)"/>
     </defs>
     <use xlink:href="#DejaVuSans-32"/>
     <use xlink:href="#DejaVuSans-37" transform="translate(63.623047 0)"/>
     <use xlink:href="#DejaVuSans-20" transform="translate(127.246094 0)"/>
     <use xlink:href="#DejaVuSans-6c" transform="translate(159.033203 0)"/>
     <use xlink:href="#DejaVuSans-6f" transform="translate(186.816406 0)"/>
     <use xlink:href="#DejaVuSans-63" transform="translate(247.998047 0)"/>
     <use xlink:href="#DejaVuSans-61" transform="translate(302.978516 0)"/>
     <use xlink:href="#DejaVuSans-74" transform="translate(364.257812 0)"/>
     <use xlink:href="#DejaVuSans-69" transform="translate(403.466797 0)"/>
     <use xlink:href="#DejaVuSans-6f" transform="translate(431.25 0)"/>
     <use xlink:href="#DejaVuSans-6e" transform="translate(492.431641 0)"/>
     <use xlink:href="#DejaVuSans-73" transform="translate(555.810547 0)"/>
    </g>
   </g>
   <g id="text_9">
    <!-- (3³ addressable) -->
    <g transform="translate(345.258125 166.59) scale(0.1 -0.1)">
     <defs>
      <path id="DejaVuSans-28" d="M 1984 4856 
Q 1566 4138 1362 3434 
Q 1159 2731 1159 2009 
Q 1159 1288 1364 580 
Q 1569 -128 1984 -844 
L 1484 -844 
Q 1016 -109 783 600 
Q 550 1309 550 2009 
Q 550 2706 781 3412 
Q 1013 4119 1484 4856 
L 1984 4856 
z
" transform="scale(0.015625)"/>
      <path id="DejaVuSans-33" d="M 2597 2516 
Q 3050 2419 3304 2112 
Q 3559 1806 3559 1356 
Q 3559 666 3084 287 
Q 2609 -91 1734 -91 
Q 1441 -91 1130 -33 
Q 819 25 488 141 
L 488 750 
Q 750 597 1062 519 
Q 1375 441 1716 441 
Q 2309 441 2620 675 
Q 2931 909 2931 1356 
Q 2931 1769 2642 2001 
Q 2353 2234 1838 2234 
L 1294 2234 
L 1294 2753 
L 1863 2753 
Q 2328 2753 2575 2939 
Q 2822 3125 2822 3475 
Q 2822 3834 2567 4026 
Q 2313 4219 1838 4219 
Q 1578 4219 1281 4162 
Q 984 4106 628 3988 
L 628 4550 
Q 988 4650 1302 4700 
Q 1616 4750 1894 4750 
Q 2613 4750 3031 4423 
Q 3450 4097 3450 3541 
Q 3450 3153 3228 2886 
Q 3006 2619 2597 2516 
z
" transform="scale(0.015625)"/>
      <path id="DejaVuSans-b3" d="M 1638 3500 
Q 1925 3444 2083 3273 
Q 2241 3103 2241 2847 
Q 2241 2459 1944 2250 
Q 1647 2041 1094 2041 
Q 916 2041 720 2073 
Q 525 2106 306 2169 
L 306 2547 
Q 469 2463 655 2422 
Q 841 2381 1050 2381 
Q 1391 2381 1578 2504 
Q 1766 2628 1766 2847 
Q 1766 3078 1592 3197 
Q 1419 3316 1081 3316 
L 813 3316 
L 813 3653 
L 1106 3653 
Q 1400 3653 1551 3751 
Q 1703 3850 1703 4038 
Q 1703 4219 1547 4314 
Q 1391 4409 1094 4409 
Q 969 4409 809 4381 
Q 650 4353 397 4281 
L 397 4641 
Q 625 4694 825 4722 
Q 1025 4750 1197 4750 
Q 1647 4750 1911 4565 
Q 2175 4381 2175 4072 
Q 2175 3856 2034 3706 
Q 1894 3556 1638 3500 
z
" transform="scale(0.015625)"/>
      <path id="DejaVuSans-64" d="M 2906 2969 
L 2906 4863 
L 3481 4863 
L 3481 0 
L 2906 0 
L 2906 525 
Q 2725 213 2448 61 
Q 2172 -91 1784 -91 
Q 1150 -91 751 415 
Q 353 922 353 1747 
Q 353 2572 751 3078 
Q 1150 3584 1784 3584 
Q 2172 3584 2448 3432 
Q 2725 3281 2906 2969 
z
M 947 1747 
Q 947 1113 1208 752 
Q 1469 391 1925 391 
Q 2381 391 2643 752 
Q 2906 1113 2906 1747 
Q 2906 2381 2643 2742 
Q 2381 3103 1925 3103 
Q 1469 3103 1208 2742 
Q 947 2381 947 1747 
z
" transform="scale(0.015625)"/>
      <path id="DejaVuSans-65" d="M 3597 1894 
L 3597 1613 
L 953 1613 
Q 991 1019 1311 708 
Q 1631 397 2203 397 
Q 2534 397 2845 478 
Q 3156 559 3463 722 
L 3463 178 
Q 3153 47 2828 -22 
Q 2503 -91 2169 -91 
Q 1331 -91 842 396 
Q 353 884 353 1716 
Q 353 2575 817 3079 
Q 1281 3584 2069 3584 
Q 2775 3584 3186 3129 
Q 3597 2675 3597 1894 
z
M 3022 2063 
Q 3016 2534 2758 2815 
Q 2500 3097 2075 3097 
Q 1594 3097 1305 2825 
Q 1016 2553 972 2059 
L 3022 2063 
z
" transform="scale(0.015625)"/>
      <path id="DejaVuSans-62" d="M 3116 1747 
Q 3116 2381 2855 2742 
Q 2594 3103 2138 3103 
Q 1681 3103 1420 2742 
Q 1159 2381 1159 1747 
Q 1159 1113 1420 752 
Q 1681 391 2138 391 
Q 2594 391 2855 752 
Q 3116 1113 3116 1747 
z
M 1159 2969 
Q 1341 3281 1617 3432 
Q 1894 3584 2278 3584 
Q 2916 3584 3314 3078 
Q 3713 2572 3713 1747 
Q 3713 922 3314 415 
Q 2916 -91 2278 -91 
Q 1894 -91 1617 61 
Q 1341 213 1159 525 
L 1159 0 
L 581 0 
L 581 4863 
L 1159 4863 
L 1159 2969 
z
" transform="scale(0.015625)"/>
      <path id="DejaVuSans-29" d="M 513 4856 
L 1013 4856 
Q 1481 4119 1714 3412 
Q 1947 2706 1947 2009 
Q 1947 1309 1714 600 
Q 1481 -109 1013 -844 
L 513 -844 
Q 928 -128 1133 580 
Q 1338 1288 1338 2009 
Q 1338 2731 1133 3434 
Q 928 4138 513 4856 
z
" transform="scale(0.015625)"/>
     </defs>
     <use xlink:href="#DejaVuSans-28"/>
     <use xlink:href="#DejaVuSans-33" transform="translate(39.013672 0)"/>
     <use xlink:href="#DejaVuSans-b3" transform="translate(102.636719 0)"/>
     <use xlink:href="#DejaVuSans-20" transform="translate(142.724609 0)"/>
     <use xlink:href="#DejaVuSans-61" transform="translate(174.511719 0)"/>
     <use xlink:href="#DejaVuSans-64" transform="translate(235.791016 0)"/>
     <use xlink:href="#DejaVuSans-64" transform="translate(299.267578 0)"/>
     <use xlink:href="#DejaVuSans-72" transform="translate(362.744141 0)"/>
     <use xlink:href="#DejaVuSans-65" transform="translate(401.607422 0)"/>
     <use xlink:href="#DejaVuSans-73" transform="translate(463.130859 0)"/>
     <use xlink:href="#DejaVuSans-73" transform="translate(515.230469 0)"/>
     <use xlink:href="#DejaVuSans-61" transform="translate(567.330078 0)"/>
     <use xlink:href="#DejaVuSans-62" transform="translate(628.609375 0)"/>
     <use xlink:href="#DejaVuSans-6c" transform="translate(692.085938 0)"/>
     <use xlink:href="#DejaVuSans-65" transform="translate(719.869141 0)"/>
     <use xlink:href="#DejaVuSans-29" transform="translate(781.392578 0)"/>
    </g>
   </g>
   <g id="text_10">
    <!-- 0: instruction -->
    <g transform="translate(353.151875 187.38) scale(0.1 -0.1)">
     <defs>
      <path id="DejaVuSans-30" d="M 2034 4250 
Q 1547 4250 1301 3770 
Q 1056 3291 1056 2328 
Q 1056 1369 1301 889 
Q 1547 409 2034 409 
Q 2525 409 2770 889 
Q 3016 1369 3016 2328 
Q 3016 3291 2770 3770 
Q 2525 4250 2034 4250 
z
M 2034 4750 
Q 2819 4750 3233 4129 
Q 3647 3509 3647 2328 
Q 3647 1150 3233 529 
Q 2819 -91 2034 -91 
Q 1250 -91 836 529 
Q 422 1150 422 2328 
Q 422 3509 836 4129 
Q 1250 4750 2034 4750 
z
" transform="scale(0.015625)"/>
      <path id="DejaVuSans-75" d="M 544 1381 
L 544 3500 
L 1119 3500 
L 1119 1403 
Q 1119 906 1312 657 
Q 1506 409 1894 409 
Q 2359 409 2629 706 
Q 2900 1003 2900 1516 
L 2900 3500 
L 3475 3500 
L 3475 0 
L 2900 0 
L 2900 538 
Q 2691 219 2414 64 
Q 2138 -91 1772 -91 
Q 1169 -91 856 284 
Q 544 659 544 1381 
z
M 1991 3584 
L 1991 3584 
z
" transform="scale(0.015625)"/>
     </defs>
     <use xlink:href="#DejaVuSans-30"/>
     <use xlink:href="#DejaVuSans-3a" transform="translate(63.623047 0)"/>
     <use xlink:href="#DejaVuSans-20" transform="translate(97.314453 0)"/>
     <use xlink:href="#DejaVuSans-69" transform="translate(129.101562 0)"/>
     <use xlink:href="#DejaVuSans-6e" transform="translate(156.884766 0)"/>
     <use xlink:href="#DejaVuSans-73" transform="translate(220.263672 0)"/>
     <use xlink:href="#DejaVuSans-74" transform="translate(272.363281 0)"/>
     <use xlink:href="#DejaVuSans-72" transform="translate(311.572266 0)"/>
     <use xlink:href="#DejaVuSans-75" transform="translate(352.685547 0)"/>
     <use xlink:href="#DejaVuSans-63" transform="translate(416.064453 0)"/>
     <use xlink:href="#DejaVuSans-74" transform="translate(471.044922 0)"/>
     <use xlink:href="#DejaVuSans-69" transform="translate(510.253906 0)"/>
     <use xlink:href="#DejaVuSans-6f" transform="translate(538.037109 0)"/>
     <use xlink:href="#DejaVuSans-6e" transform="translate(599.21875 0)"/>
    </g>
   </g>
   <g id="text_11">
    <!-- 1: instruction -->
    <g transform="translate(353.151875 208.17) scale(0.1 -0.1)">
     <defs>
      <path id="DejaVuSans-31" d="M 794 531 
L 1825 531 
L 1825 4091 
L 703 3866 
L 703 4441 
L 1819 4666 
L 2450 4666 
L 2450 531 
L 3481 531 
L 3481 0 
L 794 0 
L 794 531 
z
" transform="scale(0.015625)"/>
     </defs>
     <use xlink:href="#DejaVuSans-31"/>
     <use xlink:href="#DejaVuSans-3a" transform="translate(63.623047 0)"/>
     <use xlink:href="#DejaVuSans-20" transform="translate(97.314453 0)"/>
     <use xlink:href="#DejaVuSans-69" transform="translate(129.101562 0)"/>
     <use xlink:href="#DejaVuSans-6e" transform="translate(156.884766 0)"/>
     <use xlink:href="#DejaVuSans-73" transform="translate(220.263672 0)"/>
     <use xlink:href="#DejaVuSans-74" transform="translate(272.363281 0)"/>
     <use xlink:href="#DejaVuSans-72" transform="translate(311.572266 0)"/>
     <use xlink:href="#DejaVuSans-75" transform="translate(352.685547 0)"/>
     <use xlink:href="#DejaVuSans-63" transform="translate(416.064453 0)"/>
     <use xlink:href="#DejaVuSans-74" transform="translate(471.044922 0)"/>
     <use xlink:href="#DejaVuSans-69" transform="translate(510.253906 0)"/>
     <use xlink:href="#DejaVuSans-6f" transform="translate(538.037109 0)"/>
     <use xlink:href="#DejaVuSans-6e" transform="translate(599.21875 0)"/>
    </g>
   </g>
   <g id="text_12">
    <!-- ... -->
    <g transform="translate(381.512813 228.96) scale(0.1 -0.1)">
     <defs>
      <path id="DejaVuSans-2e" d="M 684 794 
L 1344 794 
L 1344 0 
L 684 0 
L 684 794 
z
" transform="scale(0.015625)"/>
     </defs>
     <use xlink:href="#DejaVuSans-2e"/>
     <use xlink:href="#DejaVuSans-2e" transform="translate(31.787109 0)"/>
     <use xlink:href="#DejaVuSans-2e" transform="translate(63.574219 0)"/>
    </g>
   </g>
   <g id="text_13">
    <!-- INSTRUCTION SET -->
    <g transform="translate(609.549844 111.15) scale(0.1 -0.1)">
     <use xlink:href="#DejaVuSans-Bold-49"/>
     <use xlink:href="#DejaVuSans-Bold-4e" transform="translate(37.207031 0)"/>
     <use xlink:href="#DejaVuSans-Bold-53" transform="translate(120.898438 0)"/>
     <use xlink:href="#DejaVuSans-Bold-54" transform="translate(192.919922 0)"/>
     <use xlink:href="#DejaVuSans-Bold-52" transform="translate(261.132812 0)"/>
     <use xlink:href="#DejaVuSans-Bold-55" transform="translate(338.134766 0)"/>
     <use xlink:href="#DejaVuSans-Bold-43" transform="translate(419.335938 0)"/>
     <use xlink:href="#DejaVuSans-Bold-54" transform="translate(492.724609 0)"/>
     <use xlink:href="#DejaVuSans-Bold-49" transform="translate(560.9375 0)"/>
     <use xlink:href="#DejaVuSans-Bold-4f" transform="translate(598.144531 0)"/>
     <use xlink:href="#DejaVuSans-Bold-4e" transform="translate(683.154297 0)"/>
     <use xlink:href="#DejaVuSans-Bold-20" transform="translate(766.845703 0)"/>
     <use xlink:href="#DejaVuSans-Bold-53" transform="translate(801.660156 0)"/>
     <use xlink:href="#DejaVuSans-Bold-45" transform="translate(873.681641 0)"/>
     <use xlink:href="#DejaVuSans-Bold-54" transform="translate(941.992188 0)"/>
    </g>
   </g>
   <g id="text_14">
    <!-- MOV  ADD  TAND -->
    <g transform="translate(621.596953 138.87) scale(0.09 -0.09)">
     <defs>
      <path id="DejaVuSans-4d" d="M 628 4666 
L 1569 4666 
L 2759 1491 
L 3956 4666 
L 4897 4666 
L 4897 0 
L 4281 0 
L 4281 4097 
L 3078 897 
L 2444 897 
L 1241 4097 
L 1241 0 
L 628 0 
L 628 4666 
z
" transform="scale(0.015625)"/>
      <path id="DejaVuSans-4f" d="M 2522 4238 
Q 1834 4238 1429 3725 
Q 1025 3213 1025 2328 
Q 1025 1447 1429 934 
Q 1834 422 2522 422 
Q 3209 422 3611 934 
Q 4013 1447 4013 2328 
Q 4013 3213 3611 3725 
Q 3209 4238 2522 4238 
z
M 2522 4750 
Q 3503 4750 4090 4092 
Q 4678 3434 4678 2328 
Q 4678 1225 4090 567 
Q 3503 -91 2522 -91 
Q 1538 -91 948 565 
Q 359 1222 359 2328 
Q 359 3434 948 4092 
Q 1538 4750 2522 4750 
z
" transform="scale(0.015625)"/>
      <path id="DejaVuSans-56" d="M 1831 0 
L 50 4666 
L 709 4666 
L 2188 738 
L 3669 4666 
L 4325 4666 
L 2547 0 
L 1831 0 
z
" transform="scale(0.015625)"/>
      <path id="DejaVuSans-44" d="M 1259 4147 
L 1259 519 
L 2022 519 
Q 2988 519 3436 956 
Q 3884 1394 3884 2338 
Q 3884 3275 3436 3711 
Q 2988 4147 2022 4147 
L 1259 4147 
z
M 628 4666 
L 1925 4666 
Q 3281 4666 3915 4102 
Q 4550 3538 4550 2338 
Q 4550 1131 3912 565 
Q 3275 0 1925 0 
L 628 0 
L 628 4666 
z
" transform="scale(0.015625)"/>
      <path id="DejaVuSans-54" d="M -19 4666 
L 3928 4666 
L 3928 4134 
L 2272 4134 
L 2272 0 
L 1638 0 
L 1638 4134 
L -19 4134 
L -19 4666 
z
" transform="scale(0.015625)"/>
      <path id="DejaVuSans-4e" d="M 628 4666 
L 1478 4666 
L 3547 763 
L 3547 4666 
L 4159 4666 
L 4159 0 
L 3309 0 
L 1241 3903 
L 1241 0 
L 628 0 
L 628 4666 
z
" transform="scale(0.015625)"/>
     </defs>
     <use xlink:href="#DejaVuSans-4d"/>
     <use xlink:href="#DejaVuSans-4f" transform="translate(86.279297 0)"/>
     <use xlink:href="#DejaVuSans-56" transform="translate(163.240234 0)"/>
     <use xlink:href="#DejaVuSans-20" transform="translate(231.648438 0)"/>
     <use xlink:href="#DejaVuSans-20" transform="translate(263.435547 0)"/>
     <use xlink:href="#DejaVuSans-41" transform="translate(295.222656 0)"/>
     <use xlink:href="#DejaVuSans-44" transform="translate(363.630859 0)"/>
     <use xlink:href="#DejaVuSans-44" transform="translate(440.632812 0)"/>
     <use xlink:href="#DejaVuSans-20" transform="translate(517.634766 0)"/>
     <use xlink:href="#DejaVuSans-20" transform="translate(549.421875 0)"/>
     <use xlink:href="#DejaVuSans-54" transform="translate(581.208984 0)"/>
     <use xlink:href="#DejaVuSans-41" transform="translate(634.542969 0)"/>
     <use xlink:href="#DejaVuSans-4e" transform="translate(702.951172 0)"/>
     <use xlink:href="#DejaVuSans-44" transform="translate(777.755859 0)"/>
    </g>
   </g>
   <g id="text_15">
    <!-- SUB  MUL  TOR -->
    <g transform="translate(626.000625 152.73) scale(0.09 -0.09)">
     <defs>
      <path id="DejaVuSans-53" d="M 3425 4513 
L 3425 3897 
Q 3066 4069 2747 4153 
Q 2428 4238 2131 4238 
Q 1616 4238 1336 4038 
Q 1056 3838 1056 3469 
Q 1056 3159 1242 3001 
Q 1428 2844 1947 2747 
L 2328 2669 
Q 3034 2534 3370 2195 
Q 3706 1856 3706 1288 
Q 3706 609 3251 259 
Q 2797 -91 1919 -91 
Q 1588 -91 1214 -16 
Q 841 59 441 206 
L 441 856 
Q 825 641 1194 531 
Q 1563 422 1919 422 
Q 2459 422 2753 634 
Q 3047 847 3047 1241 
Q 3047 1584 2836 1778 
Q 2625 1972 2144 2069 
L 1759 2144 
Q 1053 2284 737 2584 
Q 422 2884 422 3419 
Q 422 4038 858 4394 
Q 1294 4750 2059 4750 
Q 2388 4750 2728 4690 
Q 3069 4631 3425 4513 
z
" transform="scale(0.015625)"/>
      <path id="DejaVuSans-55" d="M 556 4666 
L 1191 4666 
L 1191 1831 
Q 1191 1081 1462 751 
Q 1734 422 2344 422 
Q 2950 422 3222 751 
Q 3494 1081 3494 1831 
L 3494 4666 
L 4128 4666 
L 4128 1753 
Q 4128 841 3676 375 
Q 3225 -91 2344 -91 
Q 1459 -91 1007 375 
Q 556 841 556 1753 
L 556 4666 
z
" transform="scale(0.015625)"/>
      <path id="DejaVuSans-4c" d="M 628 4666 
L 1259 4666 
L 1259 531 
L 3531 531 
L 3531 0 
L 628 0 
L 628 4666 
z
" transform="scale(0.015625)"/>
      <path id="DejaVuSans-52" d="M 2841 2188 
Q 3044 2119 3236 1894 
Q 3428 1669 3622 1275 
L 4263 0 
L 3584 0 
L 2988 1197 
Q 2756 1666 2539 1819 
Q 2322 1972 1947 1972 
L 1259 1972 
L 1259 0 
L 628 0 
L 628 4666 
L 2053 4666 
Q 2853 4666 3247 4331 
Q 3641 3997 3641 3322 
Q 3641 2881 3436 2590 
Q 3231 2300 2841 2188 
z
M 1259 4147 
L 1259 2491 
L 2053 2491 
Q 2509 2491 2742 2702 
Q 2975 2913 2975 3322 
Q 2975 3731 2742 3939 
Q 2509 4147 2053 4147 
L 1259 4147 
z
" transform="scale(0.015625)"/>
     </defs>
     <use xlink:href="#DejaVuSans-53"/>
     <use xlink:href="#DejaVuSans-55" transform="translate(63.476562 0)"/>
     <use xlink:href="#DejaVuSans-42" transform="translate(136.669922 0)"/>
     <use xlink:href="#DejaVuSans-20" transform="translate(205.273438 0)"/>
     <use xlink:href="#DejaVuSans-20" transform="translate(237.060547 0)"/>
     <use xlink:href="#DejaVuSans-4d" transform="translate(268.847656 0)"/>
     <use xlink:href="#DejaVuSans-55" transform="translate(355.126953 0)"/>
     <use xlink:href="#DejaVuSans-4c" transform="translate(428.320312 0)"/>
     <use xlink:href="#DejaVuSans-20" transform="translate(484.033203 0)"/>
     <use xlink:href="#DejaVuSans-20" transform="translate(515.820312 0)"/>
     <use xlink:href="#DejaVuSans-54" transform="translate(547.607422 0)"/>
     <use xlink:href="#DejaVuSans-4f" transform="translate(608.691406 0)"/>
     <use xlink:href="#DejaVuSans-52" transform="translate(687.402344 0)"/>
    </g>
   </g>
   <g id="text_16">
    <!-- DIV  JMP  TNOT -->
    <g transform="translate(626.139141 166.59) scale(0.09 -0.09)">
     <defs>
      <path id="DejaVuSans-49" d="M 628 4666 
L 1259 4666 
L 1259 0 
L 628 0 
L 628 4666 
z
" transform="scale(0.015625)"/>
      <path id="DejaVuSans-4a" d="M 628 4666 
L 1259 4666 
L 1259 325 
Q 1259 -519 939 -900 
Q 619 -1281 -91 -1281 
L -331 -1281 
L -331 -750 
L -134 -750 
Q 284 -750 456 -515 
Q 628 -281 628 325 
L 628 4666 
z
" transform="scale(0.015625)"/>
     </defs>
     <use xlink:href="#DejaVuSans-44"/>
     <use xlink:href="#DejaVuSans-49" transform="translate(77.001953 0)"/>
     <use xlink:href="#DejaVuSans-56" transform="translate(106.494141 0)"/>
     <use xlink:href="#DejaVuSans-20" transform="translate(174.902344 0)"/>
     <use xlink:href="#DejaVuSans-20" transform="translate(206.689453 0)"/>
     <use xlink:href="#DejaVuSans-4a" transform="translate(238.476562 0)"/>
     <use xlink:href="#DejaVuSans-4d" transform="translate(267.96875 0)"/>
     <use xlink:href="#DejaVuSans-50" transform="translate(354.248047 0)"/>
     <use xlink:href="#DejaVuSans-20" transform="translate(414.550781 0)"/>
     <use xlink:href="#DejaVuSans-20" transform="translate(446.337891 0)"/>
     <use xlink:href="#DejaVuSans-54" transform="translate(478.125 0)"/>
     <use xlink:href="#DejaVuSans-4e" transform="translate(539.208984 0)"/>
     <use xlink:href="#DejaVuSans-4f" transform="translate(614.013672 0)"/>
     <use xlink:href="#DejaVuSans-54" transform="translate(692.724609 0)"/>
    </g>
   </g>
   <g id="text_17">
    <!-- TJZ  HLT  NOP -->
    <g transform="translate(629.537344 180.45) scale(0.09 -0.09)">
     <defs>
      <path id="DejaVuSans-5a" d="M 359 4666 
L 4025 4666 
L 4025 4184 
L 1075 531 
L 4097 531 
L 4097 0 
L 288 0 
L 288 481 
L 3238 4134 
L 359 4134 
L 359 4666 
z
" transform="scale(0.015625)"/>
      <path id="DejaVuSans-48" d="M 628 4666 
L 1259 4666 
L 1259 2753 
L 3553 2753 
L 3553 4666 
L 4184 4666 
L 4184 0 
L 3553 0 
L 3553 2222 
L 1259 2222 
L 1259 0 
L 628 0 
L 628 4666 
z
" transform="scale(0.015625)"/>
     </defs>
     <use xlink:href="#DejaVuSans-54"/>
     <use xlink:href="#DejaVuSans-4a" transform="translate(61.083984 0)"/>
     <use xlink:href="#DejaVuSans-5a" transform="translate(90.576172 0)"/>
     <use xlink:href="#DejaVuSans-20" transform="translate(159.082031 0)"/>
     <use xlink:href="#DejaVuSans-20" transform="translate(190.869141 0)"/>
     <use xlink:href="#DejaVuSans-48" transform="translate(222.65625 0)"/>
     <use xlink:href="#DejaVuSans-4c" transform="translate(297.851562 0)"/>
     <use xlink:href="#DejaVuSans-54" transform="translate(339.814453 0)"/>
     <use xlink:href="#DejaVuSans-20" transform="translate(400.898438 0)"/>
     <use xlink:href="#DejaVuSans-20" transform="translate(432.685547 0)"/>
     <use xlink:href="#DejaVuSans-4e" transform="translate(464.472656 0)"/>
     <use xlink:href="#DejaVuSans-4f" transform="translate(539.277344 0)"/>
     <use xlink:href="#DejaVuSans-50" transform="translate(617.988281 0)"/>
    </g>
   </g>
   <g id="text_18">
    <!-- TERNARY LOGIC -->
    <g transform="translate(341.724531 339.84) scale(0.1 -0.1)">
     <defs>
      <path id="DejaVuSans-Bold-4c" d="M 588 4666 
L 1791 4666 
L 1791 909 
L 3903 909 
L 3903 0 
L 588 0 
L 588 4666 
z
" transform="scale(0.015625)"/>
     </defs>
     <use xlink:href="#DejaVuSans-Bold-54"/>
     <use xlink:href="#DejaVuSans-Bold-45" transform="translate(68.212891 0)"/>
     <use xlink:href="#DejaVuSans-Bold-52" transform="translate(136.523438 0)"/>
     <use xlink:href="#DejaVuSans-Bold-4e" transform="translate(213.525391 0)"/>
     <use xlink:href="#DejaVuSans-Bold-41" transform="translate(297.216797 0)"/>
     <use xlink:href="#DejaVuSans-Bold-52" transform="translate(374.609375 0)"/>
     <use xlink:href="#DejaVuSans-Bold-59" transform="translate(446.111328 0)"/>
     <use xlink:href="#DejaVuSans-Bold-20" transform="translate(518.523438 0)"/>
     <use xlink:href="#DejaVuSans-Bold-4c" transform="translate(553.337891 0)"/>
     <use xlink:href="#DejaVuSans-Bold-4f" transform="translate(613.433594 0)"/>
     <use xlink:href="#DejaVuSans-Bold-47" transform="translate(698.443359 0)"/>
     <use xlink:href="#DejaVuSans-Bold-49" transform="translate(780.523438 0)"/>
     <use xlink:href="#DejaVuSans-Bold-43" transform="translate(817.730469 0)"/>
    </g>
   </g>
   <g id="text_19">
    <!-- States: -1 (negative)  0 (neutral)  +1 (positive) -->
    <g transform="translate(269.437031 367.56) scale(0.1 -0.1)">
     <defs>
      <path id="DejaVuSans-2d" d="M 313 2009 
L 1997 2009 
L 1997 1497 
L 313 1497 
L 313 2009 
z
" transform="scale(0.015625)"/>
      <path id="DejaVuSans-67" d="M 2906 1791 
Q 2906 2416 2648 2759 
Q 2391 3103 1925 3103 
Q 1463 3103 1205 2759 
Q 947 2416 947 1791 
Q 947 1169 1205 825 
Q 1463 481 1925 481 
Q 2391 481 2648 825 
Q 2906 1169 2906 1791 
z
M 3481 434 
Q 3481 -459 3084 -895 
Q 2688 -1331 1869 -1331 
Q 1566 -1331 1297 -1286 
Q 1028 -1241 775 -1147 
L 775 -588 
Q 1028 -725 1275 -790 
Q 1522 -856 1778 -856 
Q 2344 -856 2625 -561 
Q 2906 -266 2906 331 
L 2906 616 
Q 2728 306 2450 153 
Q 2172 0 1784 0 
Q 1141 0 747 490 
Q 353 981 353 1791 
Q 353 2603 747 3093 
Q 1141 3584 1784 3584 
Q 2172 3584 2450 3431 
Q 2728 3278 2906 2969 
L 2906 3500 
L 3481 3500 
L 3481 434 
z
" transform="scale(0.015625)"/>
      <path id="DejaVuSans-76" d="M 191 3500 
L 800 3500 
L 1894 563 
L 2988 3500 
L 3597 3500 
L 2284 0 
L 1503 0 
L 191 3500 
z
" transform="scale(0.015625)"/>
      <path id="DejaVuSans-2b" d="M 2944 4013 
L 2944 2272 
L 4684 2272 
L 4684 1741 
L 2944 1741 
L 2944 0 
L 2419 0 
L 2419 1741 
L 678 1741 
L 678 2272 
L 2419 2272 
L 2419 4013 
L 2944 4013 
z
" transform="scale(0.015625)"/>
      <path id="DejaVuSans-70" d="M 1159 525 
L 1159 -1331 
L 581 -1331 
L 581 3500 
L 1159 3500 
L 1159 2969 
Q 1341 3281 1617 3432 
Q 1894 3584 2278 3584 
Q 2916 3584 3314 3078 
Q 3713 2572 3713 1747 
Q 3713 922 3314 415 
Q 2916 -91 2278 -91 
Q 1894 -91 1617 61 
Q 1341 213 1159 525 
z
M 3116 1747 
Q 3116 2381 2855 2742 
Q 2594 3103 2138 3103 
Q 1681 3103 1420 2742 
Q 1159 2381 1159 1747 
Q 1159 1113 1420 752 
Q 1681 391 2138 391 
Q 2594 391 2855 752 
Q 3116 1113 3116 1747 
z
" transform="scale(0.015625)"/>
     </defs>
     <use xlink:href="#DejaVuSans-53"/>
     <use xlink:href="#DejaVuSans-74" transform="translate(63.476562 0)"/>
     <use xlink:href="#DejaVuSans-61" transform="translate(102.685547 0)"/>
     <use xlink:href="#DejaVuSans-74" transform="translate(163.964844 0)"/>
     <use xlink:href="#DejaVuSans-65" transform="translate(203.173828 0)"/>
     <use xlink:href="#DejaVuSans-73" transform="translate(264.697266 0)"/>
     <use xlink:href="#DejaVuSans-3a" transform="translate(316.796875 0)"/>
     <use xlink:href="#DejaVuSans-20" transform="translate(350.488281 0)"/>
     <use xlink:href="#DejaVuSans-2d" transform="translate(382.275391 0)"/>
     <use xlink:href="#DejaVuSans-31" transform="translate(418.359375 0)"/>
     <use xlink:href="#DejaVuSans-20" transform="translate(481.982422 0)"/>
     <use xlink:href="#DejaVuSans-28" transform="translate(513.769531 0)"/>
     <use xlink:href="#DejaVuSans-6e" transform="translate(552.783203 0)"/>
     <use xlink:href="#DejaVuSans-65" transform="translate(616.162109 0)"/>
     <use xlink:href="#DejaVuSans-67" transform="translate(677.685547 0)"/>
     <use xlink:href="#DejaVuSans-61" transform="translate(741.162109 0)"/>
     <use xlink:href="#DejaVuSans-74" transform="translate(802.441406 0)"/>
     <use xlink:href="#DejaVuSans-69" transform="translate(841.650391 0)"/>
     <use xlink:href="#DejaVuSans-76" transform="translate(869.433594 0)"/>
     <use xlink:href="#DejaVuSans-65" transform="translate(928.613281 0)"/>
     <use xlink:href="#DejaVuSans-29" transform="translate(990.136719 0)"/>
     <use xlink:href="#DejaVuSans-20" transform="translate(1029.150391 0)"/>
     <use xlink:href="#DejaVuSans-20" transform="translate(1060.9375 0)"/>
     <use xlink:href="#DejaVuSans-30" transform="translate(1092.724609 0)"/>
     <use xlink:href="#DejaVuSans-20" transform="translate(1156.347656 0)"/>
     <use xlink:href="#DejaVuSans-28" transform="translate(1188.134766 0)"/>
     <use xlink:href="#DejaVuSans-6e" transform="translate(1227.148438 0)"/>
     <use xlink:href="#DejaVuSans-65" transform="translate(1290.527344 0)"/>
     <use xlink:href="#DejaVuSans-75" transform="translate(1352.050781 0)"/>
     <use xlink:href="#DejaVuSans-74" transform="translate(1415.429688 0)"/>
     <use xlink:href="#DejaVuSans-72" transform="translate(1454.638672 0)"/>
     <use xlink:href="#DejaVuSans-61" transform="translate(1495.751953 0)"/>
     <use xlink:href="#DejaVuSans-6c" transform="translate(1557.03125 0)"/>
     <use xlink:href="#DejaVuSans-29" transform="translate(1584.814453 0)"/>
     <use xlink:href="#DejaVuSans-20" transform="translate(1623.828125 0)"/>
     <use xlink:href="#DejaVuSans-20" transform="translate(1655.615234 0)"/>
     <use xlink:href="#DejaVuSans-2b" transform="translate(1687.402344 0)"/>
     <use xlink:href="#DejaVuSans-31" transform="translate(1771.191406 0)"/>
     <use xlink:href="#DejaVuSans-20" transform="translate(1834.814453 0)"/>
     <use xlink:href="#DejaVuSans-28" transform="translate(1866.601562 0)"/>
     <use xlink:href="#DejaVuSans-70" transform="translate(1905.615234 0)"/>
     <use xlink:href="#DejaVuSans-6f" transform="translate(1969.091797 0)"/>
     <use xlink:href="#DejaVuSans-73" transform="translate(2030.273438 0)"/>
     <use xlink:href="#DejaVuSans-69" transform="translate(2082.373047 0)"/>
     <use xlink:href="#DejaVuSans-74" transform="translate(2110.15625 0)"/>
     <use xlink:href="#DejaVuSans-69" transform="translate(2149.365234 0)"/>
     <use xlink:href="#DejaVuSans-76" transform="translate(2177.148438 0)"/>
     <use xlink:href="#DejaVuSans-65" transform="translate(2236.328125 0)"/>
     <use xlink:href="#DejaVuSans-29" transform="translate(2297.851562 0)"/>
    </g>
   </g>
   <g id="text_20">
    <!-- TAND = min(a,b)    TOR = max(a,b)    TNOT = -a -->
    <g transform="translate(264.890156 388.35) scale(0.1 -0.1)">
     <defs>
      <path id="DejaVuSans-3d" d="M 678 2906 
L 4684 2906 
L 4684 2381 
L 678 2381 
L 678 2906 
z
M 678 1631 
L 4684 1631 
L 4684 1100 
L 678 1100 
L 678 1631 
z
" transform="scale(0.015625)"/>
      <path id="DejaVuSans-6d" d="M 3328 2828 
Q 3544 3216 3844 3400 
Q 4144 3584 4550 3584 
Q 5097 3584 5394 3201 
Q 5691 2819 5691 2113 
L 5691 0 
L 5113 0 
L 5113 2094 
Q 5113 2597 4934 2840 
Q 4756 3084 4391 3084 
Q 3944 3084 3684 2787 
Q 3425 2491 3425 1978 
L 3425 0 
L 2847 0 
L 2847 2094 
Q 2847 2600 2669 2842 
Q 2491 3084 2119 3084 
Q 1678 3084 1418 2786 
Q 1159 2488 1159 1978 
L 1159 0 
L 581 0 
L 581 3500 
L 1159 3500 
L 1159 2956 
Q 1356 3278 1631 3431 
Q 1906 3584 2284 3584 
Q 2666 3584 2933 3390 
Q 3200 3197 3328 2828 
z
" transform="scale(0.015625)"/>
      <path id="DejaVuSans-2c" d="M 750 794 
L 1409 794 
L 1409 256 
L 897 -744 
L 494 -744 
L 750 256 
L 750 794 
z
" transform="scale(0.015625)"/>
      <path id="DejaVuSans-78" d="M 3513 3500 
L 2247 1797 
L 3578 0 
L 2900 0 
L 1881 1375 
L 863 0 
L 184 0 
L 1544 1831 
L 300 3500 
L 978 3500 
L 1906 2253 
L 2834 3500 
L 3513 3500 
z
" transform="scale(0.015625)"/>
     </defs>
     <use xlink:href="#DejaVuSans-54"/>
     <use xlink:href="#DejaVuSans-41" transform="translate(53.333984 0)"/>
     <use xlink:href="#DejaVuSans-4e" transform="translate(121.742188 0)"/>
     <use xlink:href="#DejaVuSans-44" transform="translate(196.546875 0)"/>
     <use xlink:href="#DejaVuSans-20" transform="translate(273.548828 0)"/>
     <use xlink:href="#DejaVuSans-3d" transform="translate(305.335938 0)"/>
     <use xlink:href="#DejaVuSans-20" transform="translate(389.125 0)"/>
     <use xlink:href="#DejaVuSans-6d" transform="translate(420.912109 0)"/>
     <use xlink:href="#DejaVuSans-69" transform="translate(518.324219 0)"/>
     <use xlink:href="#DejaVuSans-6e" transform="translate(546.107422 0)"/>
     <use xlink:href="#DejaVuSans-28" transform="translate(609.486328 0)"/>
     <use xlink:href="#DejaVuSans-61" transform="translate(648.5 0)"/>
     <use xlink:href="#DejaVuSans-2c" transform="translate(709.779297 0)"/>
     <use xlink:href="#DejaVuSans-62" transform="translate(741.566406 0)"/>
     <use xlink:href="#DejaVuSans-29" transform="translate(805.042969 0)"/>
     <use xlink:href="#DejaVuSans-20" transform="translate(844.056641 0)"/>
     <use xlink:href="#DejaVuSans-20" transform="translate(875.84375 0)"/>
     <use xlink:href="#DejaVuSans-20" transform="translate(907.630859 0)"/>
     <use xlink:href="#DejaVuSans-20" transform="translate(939.417969 0)"/>
     <use xlink:href="#DejaVuSans-54" transform="translate(971.205078 0)"/>
     <use xlink:href="#DejaVuSans-4f" transform="translate(1032.289062 0)"/>
     <use xlink:href="#DejaVuSans-52" transform="translate(1111 0)"/>
     <use xlink:href="#DejaVuSans-20" transform="translate(1180.482422 0)"/>
     <use xlink:href="#DejaVuSans-3d" transform="translate(1212.269531 0)"/>
     <use xlink:href="#DejaVuSans-20" transform="translate(1296.058594 0)"/>
     <use xlink:href="#DejaVuSans-6d" transform="translate(1327.845703 0)"/>
     <use xlink:href="#DejaVuSans-61" transform="translate(1425.257812 0)"/>
     <use xlink:href="#DejaVuSans-78" transform="translate(1486.537109 0)"/>
     <use xlink:href="#DejaVuSans-28" transform="translate(1545.716797 0)"/>
     <use xlink:href="#DejaVuSans-61" transform="translate(1584.730469 0)"/>
     <use xlink:href="#DejaVuSans-2c" transform="translate(1646.009766 0)"/>
     <use xlink:href="#DejaVuSans-62" transform="translate(1677.796875 0)"/>
     <use xlink:href="#DejaVuSans-29" transform="translate(1741.273438 0)"/>
     <use xlink:href="#DejaVuSans-20" transform="translate(1780.287109 0)"/>
     <use xlink:href="#DejaVuSans-20" transform="translate(1812.074219 0)"/>
     <use xlink:href="#DejaVuSans-20" transform="translate(1843.861328 0)"/>
     <use xlink:href="#DejaVuSans-20" transform="translate(1875.648438 0)"/>
     <use xlink:href="#DejaVuSans-54" transform="translate(1907.435547 0)"/>
     <use xlink:href="#DejaVuSans-4e" transform="translate(1968.519531 0)"/>
     <use xlink:href="#DejaVuSans-4f" transform="translate(2043.324219 0)"/>
     <use xlink:href="#DejaVuSans-54" transform="translate(2122.035156 0)"/>
     <use xlink:href="#DejaVuSans-20" transform="translate(2183.119141 0)"/>
     <use xlink:href="#DejaVuSans-3d" transform="translate(2214.90625 0)"/>
     <use xlink:href="#DejaVuSans-20" transform="translate(2298.695312 0)"/>
     <use xlink:href="#DejaVuSans-2d" transform="translate(2330.482422 0)"/>
     <use xlink:href="#DejaVuSans-61" transform="translate(2366.566406 0)"/>
    </g>
   </g>
   <g id="text_21">
    <!-- KEY ADVANTAGES -->
    <g transform="translate(336.009688 478.44) scale(0.1 -0.1)">
     <defs>
      <path id="DejaVuSans-Bold-4b" d="M 588 4666 
L 1791 4666 
L 1791 2963 
L 3525 4666 
L 4922 4666 
L 2675 2456 
L 5153 0 
L 3647 0 
L 1791 1838 
L 1791 0 
L 588 0 
L 588 4666 
z
" transform="scale(0.015625)"/>
      <path id="DejaVuSans-Bold-44" d="M 1791 3756 
L 1791 909 
L 2222 909 
Q 2959 909 3348 1275 
Q 3738 1641 3738 2338 
Q 3738 3031 3350 3393 
Q 2963 3756 2222 3756 
L 1791 3756 
z
M 588 4666 
L 1856 4666 
Q 2919 4666 3439 4514 
Q 3959 4363 4331 4000 
Q 4659 3684 4818 3271 
Q 4978 2859 4978 2338 
Q 4978 1809 4818 1395 
Q 4659 981 4331 666 
Q 3956 303 3431 151 
Q 2906 0 1856 0 
L 588 0 
L 588 4666 
z
" transform="scale(0.015625)"/>
      <path id="DejaVuSans-Bold-56" d="M 31 4666 
L 1241 4666 
L 2478 1222 
L 3713 4666 
L 4922 4666 
L 3194 0 
L 1759 0 
L 31 4666 
z
" transform="scale(0.015625)"/>
     </defs>
     <use xlink:href="#DejaVuSans-Bold-4b"/>
     <use xlink:href="#DejaVuSans-Bold-45" transform="translate(77.490234 0)"/>
     <use xlink:href="#DejaVuSans-Bold-59" transform="translate(145.800781 0)"/>
     <use xlink:href="#DejaVuSans-Bold-20" transform="translate(218.212891 0)"/>
     <use xlink:href="#DejaVuSans-Bold-41" transform="translate(253.027344 0)"/>
     <use xlink:href="#DejaVuSans-Bold-44" transform="translate(330.419922 0)"/>
     <use xlink:href="#DejaVuSans-Bold-56" transform="translate(413.427734 0)"/>
     <use xlink:href="#DejaVuSans-Bold-41" transform="translate(484.070312 0)"/>
     <use xlink:href="#DejaVuSans-Bold-4e" transform="translate(561.462891 0)"/>
     <use xlink:href="#DejaVuSans-Bold-54" transform="translate(645.154297 0)"/>
     <use xlink:href="#DejaVuSans-Bold-41" transform="translate(705.617188 0)"/>
     <use xlink:href="#DejaVuSans-Bold-47" transform="translate(783.009766 0)"/>
     <use xlink:href="#DejaVuSans-Bold-45" transform="translate(865.089844 0)"/>
     <use xlink:href="#DejaVuSans-Bold-53" transform="translate(933.400391 0)"/>
    </g>
   </g>
   <g id="text_22">
    <!-- • 58% more information dense than binary -->
    <g transform="translate(278.603438 499.23) scale(0.1 -0.1)">
     <defs>
      <path id="DejaVuSans-2022" d="M 959 2381 
Q 959 2769 1229 3036 
Q 1500 3303 1894 3303 
Q 2281 3303 2548 3036 
Q 2816 2769 2816 2381 
Q 2816 1991 2547 1722 
Q 2278 1453 1888 1453 
Q 1497 1453 1228 1722 
Q 959 1991 959 2381 
z
" transform="scale(0.015625)"/>
      <path id="DejaVuSans-35" d="M 691 4666 
L 3169 4666 
L 3169 4134 
L 1269 4134 
L 1269 2991 
Q 1406 3038 1543 3061 
Q 1681 3084 1819 3084 
Q 2600 3084 3056 2656 
Q 3513 2228 3513 1497 
Q 3513 744 3044 326 
Q 2575 -91 1722 -91 
Q 1428 -91 1123 -41 
Q 819 9 494 109 
L 494 744 
Q 775 591 1075 516 
Q 1375 441 1709 441 
Q 2250 441 2565 725 
Q 2881 1009 2881 1497 
Q 2881 1984 2565 2268 
Q 2250 2553 1709 2553 
Q 1456 2553 1204 2497 
Q 953 2441 691 2322 
L 691 4666 
z
" transform="scale(0.015625)"/>
      <path id="DejaVuSans-38" d="M 2034 2216 
Q 1584 2216 1326 1975 
Q 1069 1734 1069 1313 
Q 1069 891 1326 650 
Q 1584 409 2034 409 
Q 2484 409 2743 651 
Q 3003 894 3003 1313 
Q 3003 1734 2745 1975 
Q 2488 2216 2034 2216 
z
M 1403 2484 
Q 997 2584 770 2862 
Q 544 3141 544 3541 
Q 544 4100 942 4425 
Q 1341 4750 2034 4750 
Q 2731 4750 3128 4425 
Q 3525 4100 3525 3541 
Q 3525 3141 3298 2862 
Q 3072 2584 2669 2484 
Q 3125 2378 3379 2068 
Q 3634 1759 3634 1313 
Q 3634 634 3220 271 
Q 2806 -91 2034 -91 
Q 1263 -91 848 271 
Q 434 634 434 1313 
Q 434 1759 690 2068 
Q 947 2378 1403 2484 
z
M 1172 3481 
Q 1172 3119 1398 2916 
Q 1625 2713 2034 2713 
Q 2441 2713 2670 2916 
Q 2900 3119 2900 3481 
Q 2900 3844 2670 4047 
Q 2441 4250 2034 4250 
Q 1625 4250 1398 4047 
Q 1172 3844 1172 3481 
z
" transform="scale(0.015625)"/>
      <path id="DejaVuSans-25" d="M 4653 2053 
Q 4381 2053 4226 1822 
Q 4072 1591 4072 1178 
Q 4072 772 4226 539 
Q 4381 306 4653 306 
Q 4919 306 5073 539 
Q 5228 772 5228 1178 
Q 5228 1588 5073 1820 
Q 4919 2053 4653 2053 
z
M 4653 2450 
Q 5147 2450 5437 2106 
Q 5728 1763 5728 1178 
Q 5728 594 5436 251 
Q 5144 -91 4653 -91 
Q 4153 -91 3862 251 
Q 3572 594 3572 1178 
Q 3572 1766 3864 2108 
Q 4156 2450 4653 2450 
z
M 1428 4353 
Q 1159 4353 1004 4120 
Q 850 3888 850 3481 
Q 850 3069 1003 2837 
Q 1156 2606 1428 2606 
Q 1700 2606 1854 2837 
Q 2009 3069 2009 3481 
Q 2009 3884 1853 4118 
Q 1697 4353 1428 4353 
z
M 4250 4750 
L 4750 4750 
L 1831 -91 
L 1331 -91 
L 4250 4750 
z
M 1428 4750 
Q 1922 4750 2215 4408 
Q 2509 4066 2509 3481 
Q 2509 2891 2217 2550 
Q 1925 2209 1428 2209 
Q 931 2209 642 2551 
Q 353 2894 353 3481 
Q 353 4063 643 4406 
Q 934 4750 1428 4750 
z
" transform="scale(0.015625)"/>
      <path id="DejaVuSans-66" d="M 2375 4863 
L 2375 4384 
L 1825 4384 
Q 1516 4384 1395 4259 
Q 1275 4134 1275 3809 
L 1275 3500 
L 2222 3500 
L 2222 3053 
L 1275 3053 
L 1275 0 
L 697 0 
L 697 3053 
L 147 3053 
L 147 3500 
L 697 3500 
L 697 3744 
Q 697 4328 969 4595 
Q 1241 4863 1831 4863 
L 2375 4863 
z
" transform="scale(0.015625)"/>
      <path id="DejaVuSans-68" d="M 3513 2113 
L 3513 0 
L 2938 0 
L 2938 2094 
Q 2938 2591 2744 2837 
Q 2550 3084 2163 3084 
Q 1697 3084 1428 2787 
Q 1159 2491 1159 1978 
L 1159 0 
L 581 0 
L 581 4863 
L 1159 4863 
L 1159 2956 
Q 1366 3272 1645 3428 
Q 1925 3584 2291 3584 
Q 2894 3584 3203 3211 
Q 3513 2838 3513 2113 
z
" transform="scale(0.015625)"/>
      <path id="DejaVuSans-79" d="M 2059 -325 
Q 1816 -950 1584 -1140 
Q 1353 -1331 966 -1331 
L 506 -1331 
L 506 -850 
L 844 -850 
Q 1081 -850 1212 -737 
Q 1344 -625 1503 -206 
L 1606 56 
L 191 3500 
L 800 3500 
L 1894 763 
L 2988 3500 
L 3597 3500 
L 2059 -325 
z
" transform="scale(0.015625)"/>
     </defs>
     <use xlink:href="#DejaVuSans-2022"/>
     <use xlink:href="#DejaVuSans-20" transform="translate(58.984375 0)"/>
     <use xlink:href="#DejaVuSans-35" transform="translate(90.771484 0)"/>
     <use xlink:href="#DejaVuSans-38" transform="translate(154.394531 0)"/>
     <use xlink:href="#DejaVuSans-25" transform="translate(218.017578 0)"/>
     <use xlink:href="#DejaVuSans-20" transform="translate(313.037109 0)"/>
     <use xlink:href="#DejaVuSans-6d" transform="translate(344.824219 0)"/>
     <use xlink:href="#DejaVuSans-6f" transform="translate(442.236328 0)"/>
     <use xlink:href="#DejaVuSans-72" transform="translate(503.417969 0)"/>
     <use xlink:href="#DejaVuSans-65" transform="translate(542.28125 0)"/>
     <use xlink:href="#DejaVuSans-20" transform="translate(603.804688 0)"/>
     <use xlink:href="#DejaVuSans-69" transform="translate(635.591797 0)"/>
     <use xlink:href="#DejaVuSans-6e" transform="translate(663.375 0)"/>
     <use xlink:href="#DejaVuSans-66" transform="translate(726.753906 0)"/>
     <use xlink:href="#DejaVuSans-6f" transform="translate(761.958984 0)"/>
     <use xlink:href="#DejaVuSans-72" transform="translate(823.140625 0)"/>
     <use xlink:href="#DejaVuSans-6d" transform="translate(862.503906 0)"/>
     <use xlink:href="#DejaVuSans-61" transform="translate(959.916016 0)"/>
     <use xlink:href="#DejaVuSans-74" transform="translate(1021.195312 0)"/>
     <use xlink:href="#DejaVuSans-69" transform="translate(1060.404297 0)"/>
     <use xlink:href="#DejaVuSans-6f" transform="translate(1088.1875 0)"/>
     <use xlink:href="#DejaVuSans-6e" transform="translate(1149.369141 0)"/>
     <use xlink:href="#DejaVuSans-20" transform="translate(1212.748047 0)"/>
     <use xlink:href="#DejaVuSans-64" transform="translate(1244.535156 0)"/>
     <use xlink:href="#DejaVuSans-65" transform="translate(1308.011719 0)"/>
     <use xlink:href="#DejaVuSans-6e" transform="translate(1369.535156 0)"/>
     <use xlink:href="#DejaVuSans-73" transform="translate(1432.914062 0)"/>
     <use xlink:href="#DejaVuSans-65" transform="translate(1485.013672 0)"/>
     <use xlink:href="#DejaVuSans-20" transform="translate(1546.537109 0)"/>
     <use xlink:href="#DejaVuSans-74" transform="translate(1578.324219 0)"/>
     <use xlink:href="#DejaVuSans-68" transform="translate(1617.533203 0)"/>
     <use xlink:href="#DejaVuSans-61" transform="translate(1680.912109 0)"/>
     <use xlink:href="#DejaVuSans-6e" transform="translate(1742.191406 0)"/>
     <use xlink:href="#DejaVuSans-20" transform="translate(1805.570312 0)"/>
     <use xlink:href="#DejaVuSans-62" transform="translate(1837.357422 0)"/>
     <use xlink:href="#DejaVuSans-69" transform="translate(1900.833984 0)"/>
     <use xlink:href="#DejaVuSans-6e" transform="translate(1928.617188 0)"/>
     <use xlink:href="#DejaVuSans-61" transform="translate(1991.996094 0)"/>
     <use xlink:href="#DejaVuSans-72" transform="translate(2053.275391 0)"/>
     <use xlink:href="#DejaVuSans-79" transform="translate(2094.388672 0)"/>
    </g>
   </g>
   <g id="text_23">
    <!-- • Natural signed number representation -->
    <g transform="translate(285.765938 513.09) scale(0.1 -0.1)">
     <use xlink:href="#DejaVuSans-2022"/>
     <use xlink:href="#DejaVuSans-20" transform="translate(58.984375 0)"/>
     <use xlink:href="#DejaVuSans-4e" transform="translate(90.771484 0)"/>
     <use xlink:href="#DejaVuSans-61" transform="translate(165.576172 0)"/>
     <use xlink:href="#DejaVuSans-74" transform="translate(226.855469 0)"/>
     <use xlink:href="#DejaVuSans-75" transform="translate(266.064453 0)"/>
     <use xlink:href="#DejaVuSans-72" transform="translate(329.443359 0)"/>
     <use xlink:href="#DejaVuSans-61" transform="translate(370.556641 0)"/>
     <use xlink:href="#DejaVuSans-6c" transform="translate(431.835938 0)"/>
     <use xlink:href="#DejaVuSans-20" transform="translate(459.619141 0)"/>
     <use xlink:href="#DejaVuSans-73" transform="translate(491.40625 0)"/>
     <use xlink:href="#DejaVuSans-69" transform="translate(543.505859 0)"/>
     <use xlink:href="#DejaVuSans-67" transform="translate(571.289062 0)"/>
     <use xlink:href="#DejaVuSans-6e" transform="translate(634.765625 0)"/>
     <use xlink:href="#DejaVuSans-65" transform="translate(698.144531 0)"/>
     <use xlink:href="#DejaVuSans-64" transform="translate(759.667969 0)"/>
     <use xlink:href="#DejaVuSans-20" transform="translate(823.144531 0)"/>
     <use xlink:href="#DejaVuSans-6e" transform="translate(854.931641 0)"/>
     <use xlink:href="#DejaVuSans-75" transform="translate(918.310547 0)"/>
     <use xlink:href="#DejaVuSans-6d" transform="translate(981.689453 0)"/>
     <use xlink:href="#DejaVuSans-62" transform="translate(1079.101562 0)"/>
     <use xlink:href="#DejaVuSans-65" transform="translate(1142.578125 0)"/>
     <use xlink:href="#DejaVuSans-72" transform="translate(1204.101562 0)"/>
     <use xlink:href="#DejaVuSans-20" transform="translate(1245.214844 0)"/>
     <use xlink:href="#DejaVuSans-72" transform="translate(1277.001953 0)"/>
     <use xlink:href="#DejaVuSans-65" transform="translate(1315.865234 0)"/>
     <use xlink:href="#DejaVuSans-70" transform="translate(1377.388672 0)"/>
     <use xlink:href="#DejaVuSans-72" transform="translate(1440.865234 0)"/>
     <use xlink:href="#DejaVuSans-65" transform="translate(1479.728516 0)"/>
     <use xlink:href="#DejaVuSans-73" transform="translate(1541.251953 0)"/>
     <use xlink:href="#DejaVuSans-65" transform="translate(1593.351562 0)"/>
     <use xlink:href="#DejaVuSans-6e" transform="translate(1654.875 0)"/>
     <use xlink:href="#DejaVuSans-74" transform="translate(1718.253906 0)"/>
     <use xlink:href="#DejaVuSans-61" transform="translate(1757.462891 0)"/>
     <use xlink:href="#DejaVuSans-74" transform="translate(1818.742188 0)"/>
     <use xlink:href="#DejaVuSans-69" transform="translate(1857.951172 0)"/>
     <use xlink:href="#DejaVuSans-6f" transform="translate(1885.734375 0)"/>
     <use xlink:href="#DejaVuSans-6e" transform="translate(1946.916016 0)"/>
    </g>
   </g>
   <g id="text_24">
    <!-- • Symmetric arithmetic operations -->
    <g transform="translate(299.164375 526.95) scale(0.1 -0.1)">
     <use xlink:href="#DejaVuSans-2022"/>
     <use xlink:href="#DejaVuSans-20" transform="translate(58.984375 0)"/>
     <use xlink:href="#DejaVuSans-53" transform="translate(90.771484 0)"/>
     <use xlink:href="#DejaVuSans-79" transform="translate(154.248047 0)"/>
     <use xlink:href="#DejaVuSans-6d" transform="translate(213.427734 0)"/>
     <use xlink:href="#DejaVuSans-6d" transform="translate(310.839844 0)"/>
     <use xlink:href="#DejaVuSans-65" transform="translate(408.251953 0)"/>
     <use xlink:href="#DejaVuSans-74" transform="translate(469.775391 0)"/>
     <use xlink:href="#DejaVuSans-72" transform="translate(508.984375 0)"/>
     <use xlink:href="#DejaVuSans-69" transform="translate(550.097656 0)"/>
     <use xlink:href="#DejaVuSans-63" transform="translate(577.880859 0)"/>
     <use xlink:href="#DejaVuSans-20" transform="translate(632.861328 0)"/>
     <use xlink:href="#DejaVuSans-61" transform="translate(664.648438 0)"/>
     <use xlink:href="#DejaVuSans-72" transform="translate(725.927734 0)"/>
     <use xlink:href="#DejaVuSans-69" transform="translate(767.041016 0)"/>
     <use xlink:href="#DejaVuSans-74" transform="translate(794.824219 0)"/>
     <use xlink:href="#DejaVuSans-68" transform="translate(834.033203 0)"/>
     <use xlink:href="#DejaVuSans-6d" transform="translate(897.412109 0)"/>
     <use xlink:href="#DejaVuSans-65" transform="translate(994.824219 0)"/>
     <use xlink:href="#DejaVuSans-74" transform="translate(1056.347656 0)"/>
     <use xlink:href="#DejaVuSans-69" transform="translate(1095.556641 0)"/>
     <use xlink:href="#DejaVuSans-63" transform="translate(1123.339844 0)"/>
     <use xlink:href="#DejaVuSans-20" transform="translate(1178.320312 0)"/>
     <use xlink:href="#DejaVuSans-6f" transform="translate(1210.107422 0)"/>
     <use xlink:href="#DejaVuSans-70" transform="translate(1271.289062 0)"/>
     <use xlink:href="#DejaVuSans-65" transform="translate(1334.765625 0)"/>
     <use xlink:href="#DejaVuSans-72" transform="translate(1396.289062 0)"/>
     <use xlink:href="#DejaVuSans-61" transform="translate(1437.402344 0)"/>
     <use xlink:href="#DejaVuSans-74" transform="translate(1498.681641 0)"/>
     <use xlink:href="#DejaVuSans-69" transform="translate(1537.890625 0)"/>
     <use xlink:href="#DejaVuSans-6f" transform="translate(1565.673828 0)"/>
     <use xlink:href="#DejaVuSans-6e" transform="translate(1626.855469 0)"/>
     <use xlink:href="#DejaVuSans-73" transform="translate(1690.234375 0)"/>
    </g>
   </g>
  </g>
 </g>
 <defs>
  <clipPath id="pad7a254bce">
   <rect x="7.2" y="7.2" width="842.4" height="554.4"/>
  </clipPath>
 </defs>
</svg>
